.
 
http://www.scenetime.com    -  Hottest private tracker on the net. !!!

New release on http://www.scenetime.com

        Seed back for speed


...................................NFO:.................................................[URL=http://img859.imageshack.us/i/theironladyquadlo.jpg/][IMG]http://img859.imageshack.us/img859/9498/theironladyquadlo.jpg[/IMG][/URL]

Complete name                    : The Iron Lady 2011 CAM READNFO x264 AC3 - DTRG.mkv
Format                           : Matroska
Format version                   : Version 2
File size                        : 1.37 GiB
Duration                         : 1h 40mn
Overall bit rate                 : 1 957 Kbps
Encoded date                     : UTC 2012-01-18 00:36:29
Writing application              : mkvmerge v5.2.1 ('A Far Off Place') built on Jan  2 2012 23:21:10
Writing library                  : libebml v1.2.3 + libmatroska v1.3.0

Video
ID                               : 1
Format                           : AVC
Format/Info                      : Advanced Video Codec
Format profile                   : High@L3.0
Format settings, CABAC           : Yes
Format settings, ReFrames        : 4 frames
Muxing mode                      : Header stripping
Codec ID                         : V_MPEG4/ISO/AVC
Duration                         : 1h 40mn
Bit rate                         : 1 828 Kbps
Width                            : 720 pixels
Height                           : 304 pixels
Display aspect ratio             : 2.35:1
Frame rate                       : 25.000 fps
Color space                      : YUV
Chroma subsampling               : 4:2:0
Bit depth                        : 8 bits
Scan type                        : Progressive
Bits/(Pixel*Frame)               : 0.334
Stream size                      : 1.25 GiB (91%)
Writing library                  : x264 core 116 r2074 2641b9e
Language                         : English
Default                          : Yes
Forced                           : No
Source                           : INSPiRAL, cheers...

Audio
ID                               : 2
Format                           : AC-3
Format/Info                      : Audio Coding 3
Mode extension                   : CM (complete main)
Muxing mode                      : Header stripping
Codec ID                         : A_AC3
Duration                         : 1h 40mn
Bit rate mode                    : Constant
Bit rate                         : 128 Kbps
Channel(s)                       : 2 channels
Channel positions                : Front: L R
Sampling rate                    : 44.1 KHz
Bit depth                        : 16 bits
Compression mode                 : Lossy
Stream size                      : 91.6 MiB (7%)
Default                          : Yes
Forced                           : No
Source                           : INSPiRAL, cheers...

iMDB: http://www.imdb.com/title/tt1007029/

Encoder: Kareemzos..

DTRG bringing the p2p world yet another release, The Iron Lady CAMRip...

the readnfo is because there is missing seconds in the movie
nothing i can do about that though...
every so often a "url" will pop up for a few seconds, again nothing i can do 
about that...you can see what i mean by one of the screenshots...
its a cam so vid has its faults, colors fucked, audio not so good but thanks to
INSPiRAL for cleaning it to the best they could...good job!
used some filters to try an get it lookin better, added a little brightness,
i mean just a little! changed hsv levels a bit..ETC ETC
i didn't do go mad with the sharpen filter tbh so...
if you dont like it then i suggest you tell someone
who gives a flying fook, p2p is having about fun don't so god damn bitch about releases!!!!!
check the sample before downloading because the screens cant tell you the real Q of
the release, enjoy folks.....

[b][i][size=6]SCREENSHOTS:[/b][/i][/size]

[URL=http://img594.imageshack.us/i/44336321.jpg/][IMG]http://img594.imageshack.us/img594/4132/44336321.jpg[/IMG][/URL]
[URL=http://img84.imageshack.us/i/92217526.jpg/][IMG]http://img84.imageshack.us/img84/7552/92217526.jpg[/IMG][/URL]
[URL=http://img696.imageshack.us/i/48694251.jpg/][IMG]http://img696.imageshack.us/img696/218/48694251.jpg[/IMG][/URL]
[URL=http://img194.imageshack.us/i/51039088.jpg/][IMG]http://img194.imageshack.us/img194/1984/51039088.jpg[/IMG][/URL]
[URL=http://img88.imageshack.us/i/78317907.jpg/][IMG]http://img88.imageshack.us/img88/6825/78317907.jpg[/IMG][/URL]
[URL=http://img440.imageshack.us/i/24161746.jpg/][IMG]http://img440.imageshack.us/img440/7185/24161746.jpg[/IMG][/URL]
[URL=http://img841.imageshack.us/i/14139538.jpg/][IMG]http://img841.imageshack.us/img841/511/14139538.jpg[/IMG][/URL]
[URL=http://img406.imageshack.us/i/62601689.jpg/][IMG]http://img406.imageshack.us/img406/2176/62601689.jpg[/IMG][/URL]
[URL=http://img191.imageshack.us/i/35705797.jpg/][IMG]http://img191.imageshack.us/img191/1031/35705797.jpg[/IMG][/URL]
[URL=http://img16.imageshack.us/i/63873734.jpg/][IMG]http://img16.imageshack.us/img16/7628/63873734.jpg[/IMG][/URL]
[URL=http://img854.imageshack.us/i/17880394.jpg/][IMG]http://img854.imageshack.us/img854/5252/17880394.jpg[/IMG][/URL]
[URL=http://img836.imageshack.us/i/68245999.jpg/][IMG]http://img836.imageshack.us/img836/8466/68245999.jpg[/IMG][/URL]
[URL=http://img17.imageshack.us/i/24887152.jpg/][IMG]http://img17.imageshack.us/img17/264/24887152.jpg[/IMG][/URL]
[URL=http://img59.imageshack.us/i/81439098.jpg/][IMG]http://img59.imageshack.us/img59/959/81439098.jpg[/IMG][/URL]
[URL=http://img24.imageshack.us/i/26457099.jpg/][IMG]http://img24.imageshack.us/img24/755/26457099.jpg[/IMG][/URL]
[URL=http://img444.imageshack.us/i/82939851.jpg/][IMG]http://img444.imageshack.us/img444/3681/82939851.jpg[/IMG][/URL]
[URL=http://img543.imageshack.us/i/20125898.jpg/][IMG]http://img543.imageshack.us/img543/1386/20125898.jpg[/IMG][/URL]
[URL=http://img338.imageshack.us/i/89660148.jpg/][IMG]http://img338.imageshack.us/img338/5992/89660148.jpg[/IMG][/URL]

[b][i][size=6]THUMBNAiLS[/b][/i][/size]

[URL=http://img7.imageshack.us/i/55503150.jpg/][IMG]http://img7.imageshack.us/img7/5961/55503150.jpg[/IMG][/URL]

Greetz to EMBER, ETRG, BHRG, FYA, 26k, CreWSaDe, RemixHD, LEGiTiMATE.......and maybe many more...........